<svg xmlns="http://www.w3.org/2000/svg" width="3840" height="2160" viewBox="0 0 3840 2160">
  <defs>
    <radialGradient id="bg" cx="50%" cy="44%" r="72%">
      <stop offset="0" stop-color="#201436"/>
      <stop offset=".38" stop-color="#100B1B"/>
      <stop offset="1" stop-color="#06050A"/>
    </radialGradient>
    <radialGradient id="halo" cx="50%" cy="50%" r="50%">
      <stop offset="0" stop-color="#8B4DFF" stop-opacity=".28"/>
      <stop offset=".48" stop-color="#6A2EE8" stop-opacity=".08"/>
      <stop offset="1" stop-color="#000" stop-opacity="0"/>
    </radialGradient>
    <linearGradient id="p" x1="0" y1="0" x2="1" y2="1">
      <stop offset="0" stop-color="#D2B3FF"/><stop offset=".5" stop-color="#9456FF"/><stop offset="1" stop-color="#5E20D4"/>
    </linearGradient>
    <linearGradient id="w" x1="0" y1="0" x2="0.8" y2="1">
      <stop offset="0" stop-color="#FFFFFF"/><stop offset=".58" stop-color="#F4F0FF"/><stop offset="1" stop-color="#CFC4E8"/>
    </linearGradient>
    <filter id="blur"><feGaussianBlur stdDeviation="42"/></filter>
    <filter id="glow"><feGaussianBlur stdDeviation="10"/></filter>
    <pattern id="grid" width="96" height="96" patternUnits="userSpaceOnUse">
      <path d="M96 0H0V96" fill="none" stroke="#B78BFF" stroke-opacity=".035" stroke-width="2"/>
    </pattern>
  </defs>
  <rect width="3840" height="2160" fill="url(#bg)"/>
  <rect width="3840" height="2160" fill="url(#grid)"/>
  <ellipse cx="1920" cy="1030" rx="1150" ry="900" fill="url(#halo)" filter="url(#blur)"/>
  <path d="M0 1830 C900 1510 1220 2130 2200 1800 C3000 1530 3370 1680 3840 1470 V2160 H0Z"
        fill="#7C39F4" opacity=".06"/>
  <g transform="translate(1340 410) scale(1.15)">
    <path d="M231 699 A364 364 0 0 1 756 220" fill="none" stroke="url(#w)" stroke-width="44"/>
    <path d="M807 267 A364 364 0 0 1 836 640" fill="none" stroke="url(#p)" stroke-width="44"/>
    <path d="M731 785 A364 364 0 0 1 381 827" fill="none" stroke="url(#p)" stroke-width="44"/>
    <path d="M329 808 L286 785" stroke="url(#p)" stroke-width="44"/>
    <path d="M185 789 L504 155 L850 797 L723 722 L504 323 L364 602 L547 501 L603 551 L297 752 Z"
          fill="url(#w)"/>
    <path d="M354 746 L594 566 L641 624 L456 795 Z" fill="url(#p)"/>
  </g>
  <text x="1920" y="1600" text-anchor="middle" fill="#F8F6FF"
        font-family="system-ui, sans-serif" font-weight="800" font-size="150" letter-spacing="38">ANTYX-OS</text>
  <text x="1920" y="1725" text-anchor="middle" fill="#B996FF"
        font-family="system-ui, sans-serif" font-weight="650" font-size="44" letter-spacing="18">SECURE. STABLE. GAMING.</text>
</svg>