<svg xmlns="http://www.w3.org/2000/svg" viewBox="0 0 1800 520">
  <defs>
    <linearGradient id="p" x1="0" y1="0" x2="1" y2="1">
      <stop offset="0" stop-color="#C39BFF"/><stop offset="1" stop-color="#6E2CEB"/>
    </linearGradient>
  </defs>
  <g transform="translate(20,20) scale(.45)">
    <path d="M231 699 A364 364 0 0 1 756 220" fill="none" stroke="#F7F5FF" stroke-width="44"/>
    <path d="M807 267 A364 364 0 0 1 836 640" fill="none" stroke="url(#p)" stroke-width="44"/>
    <path d="M731 785 A364 364 0 0 1 381 827" fill="none" stroke="url(#p)" stroke-width="44"/>
    <path d="M329 808 L286 785" stroke="url(#p)" stroke-width="44"/>
    <path d="M185 789 L504 155 L850 797 L723 722 L504 323 L364 602 L547 501 L603 551 L297 752 Z" fill="#F7F5FF"/>
    <path d="M354 746 L594 566 L641 624 L456 795 Z" fill="url(#p)"/>
  </g>
  <text x="520" y="250" fill="#F7F5FF" font-family="system-ui, sans-serif" font-size="172" font-weight="800" letter-spacing="28">ANTYX</text>
  <text x="1330" y="250" fill="url(#p)" font-family="system-ui, sans-serif" font-size="172" font-weight="800" letter-spacing="10">-OS</text>
  <text x="525" y="355" fill="#B9A9D5" font-family="system-ui, sans-serif" font-size="42" font-weight="700" letter-spacing="18">SECURE. STABLE. GAMING.</text>
</svg>